<svg width="758" height="648" viewBox="0 0 758 648" fill="none" xmlns="http://www.w3.org/2000/svg">
<g clip-path="url(#clip0_67_72)">
<path d="M311 409C418.696 409 506 321.696 506 214C506 106.304 418.696 19 311 19C203.304 19 116 106.304 116 214C116 321.696 203.304 409 311 409Z" fill="#F0F0F0"/>
<path d="M302.522 214H506C506 196.4 503.654 179.349 499.283 163.13H302.522V214Z" fill="#D80027"/>
<path d="M302.522 112.261H477.379C465.442 92.7823 450.18 75.5652 432.385 61.3911H302.522V112.261Z" fill="#D80027"/>
<path d="M311 409C356.893 409 399.075 393.138 432.384 366.609H189.616C222.926 393.138 265.107 409 311 409Z" fill="#D80027"/>
<path d="M144.621 315.739H477.379C486.962 300.102 494.395 283.009 499.282 264.869H122.718C127.606 283.009 135.038 300.102 144.621 315.739V315.739Z" fill="#D80027"/>
<path d="M206.328 49.452H224.098L207.568 61.4605L213.882 80.8912L197.354 68.8827L180.825 80.8912L186.279 64.1052C171.726 76.2279 158.97 90.4309 148.458 106.256H154.152L143.631 113.9C141.991 116.635 140.419 119.413 138.912 122.232L143.937 137.696L134.563 130.885C132.233 135.822 130.102 140.87 128.186 146.023L133.721 163.061H154.152L137.623 175.069L143.937 194.5L127.408 182.491L117.507 189.685C116.516 197.651 116 205.765 116 214H311C311 106.305 311 93.6088 311 19C272.478 19 236.569 30.1744 206.328 49.452V49.452ZM213.882 194.5L197.354 182.491L180.825 194.5L187.139 175.069L170.61 163.061H191.041L197.354 143.63L203.667 163.061H224.098L207.568 175.069L213.882 194.5ZM207.568 118.265L213.882 137.696L197.354 125.687L180.825 137.696L187.139 118.265L170.61 106.256H191.041L197.354 86.8257L203.667 106.256H224.098L207.568 118.265ZM283.828 194.5L267.299 182.491L250.771 194.5L257.085 175.069L240.555 163.061H260.986L267.299 143.63L273.613 163.061H294.043L277.514 175.069L283.828 194.5ZM277.514 118.265L283.828 137.696L267.299 125.687L250.771 137.696L257.085 118.265L240.555 106.256H260.986L267.299 86.8257L273.613 106.256H294.043L277.514 118.265ZM277.514 61.4605L283.828 80.8912L267.299 68.8827L250.771 80.8912L257.085 61.4605L240.555 49.452H260.986L267.299 30.0213L273.613 49.452H294.043L277.514 61.4605Z" fill="#0052B4"/>
</g>
<g clip-path="url(#clip1_67_72)">
<path d="M502 648C643.385 648 758 533.385 758 392C758 250.615 643.385 136 502 136C360.615 136 246 250.615 246 392C246 533.385 360.615 648 502 648Z" fill="#6DA544"/>
<path d="M502 236.174L713.478 392L502 547.826L290.522 392L502 236.174Z" fill="#FFDA44"/>
<path d="M502 481.043C551.177 481.043 591.043 441.177 591.043 392C591.043 342.823 551.177 302.957 502 302.957C452.823 302.957 412.957 342.823 412.957 392C412.957 441.177 452.823 481.043 502 481.043Z" fill="#F0F0F0"/>
<path d="M457.478 386.435C441.994 386.435 427.051 388.79 412.985 393.16C413.608 441.8 453.212 481.044 502 481.044C532.168 481.044 558.812 466.027 574.919 443.076C547.362 408.579 504.961 386.435 457.478 386.435V386.435Z" fill="#0052B4"/>
<path d="M589.393 409.06C590.465 403.536 591.044 397.837 591.044 392C591.044 342.822 551.178 302.957 502.001 302.957C465.307 302.957 433.807 325.158 420.175 356.856C432.225 354.359 444.701 353.044 457.48 353.044C509.197 353.043 555.983 374.541 589.393 409.06V409.06Z" fill="#0052B4"/>
</g>
<defs>
<clipPath id="clip0_67_72">
<rect width="390" height="390" fill="white" transform="translate(116 19)"/>
</clipPath>
<clipPath id="clip1_67_72">
<rect width="512" height="512" fill="white" transform="translate(246 136)"/>
</clipPath>
</defs>
</svg>
