<svg width="758" height="650" viewBox="0 0 758 650" fill="none" xmlns="http://www.w3.org/2000/svg">
<g clip-path="url(#clip0_67_73)">
<path d="M307 394C414.696 394 502 306.696 502 199C502 91.3045 414.696 4 307 4C199.304 4 112 91.3045 112 199C112 306.696 199.304 394 307 394Z" fill="#6DA544"/>
<path d="M307 80.3044L468.087 199L307 317.696L145.913 199L307 80.3044Z" fill="#FFDA44"/>
<path d="M307 266.826C344.459 266.826 374.826 236.459 374.826 199C374.826 161.541 344.459 131.174 307 131.174C269.541 131.174 239.174 161.541 239.174 199C239.174 236.459 269.541 266.826 307 266.826Z" fill="#F0F0F0"/>
<path d="M273.087 194.761C261.292 194.761 249.91 196.555 239.196 199.884C239.67 236.934 269.837 266.827 307 266.827C329.979 266.827 350.275 255.388 362.544 237.906C341.553 211.629 309.255 194.761 273.087 194.761V194.761Z" fill="#0052B4"/>
<path d="M373.569 211.995C374.385 207.787 374.826 203.446 374.826 199C374.826 161.54 344.46 131.174 307.001 131.174C279.05 131.174 255.056 148.085 244.672 172.23C253.851 170.328 263.354 169.327 273.088 169.327C312.482 169.326 348.12 185.701 373.569 211.995V211.995Z" fill="#0052B4"/>
</g>
<g clip-path="url(#clip1_67_73)">
<path d="M502 650C643.385 650 758 535.385 758 394C758 252.615 643.385 138 502 138C360.615 138 246 252.615 246 394C246 535.385 360.615 650 502 650Z" fill="#F0F0F0"/>
<path d="M490.87 394H758C758 370.894 754.92 348.51 749.181 327.217H490.87V394Z" fill="#D80027"/>
<path d="M490.87 260.435H720.426C704.755 234.863 684.718 212.26 661.356 193.652H490.87V260.435Z" fill="#D80027"/>
<path d="M502 650C562.249 650 617.626 629.176 661.356 594.348H342.644C386.374 629.176 441.751 650 502 650Z" fill="#D80027"/>
<path d="M283.574 527.565H720.426C733.007 507.036 742.764 484.596 749.181 460.782H254.819C261.236 484.596 270.993 507.036 283.574 527.565V527.565Z" fill="#D80027"/>
<path d="M364.584 177.978H387.913L366.213 193.743L374.502 219.252L352.803 203.487L331.104 219.252L338.264 197.215C319.158 213.13 302.412 231.776 288.612 252.552H296.087L282.274 262.587C280.122 266.177 278.058 269.824 276.08 273.525L282.676 293.826L270.37 284.885C267.311 291.366 264.513 297.993 261.998 304.758L269.265 327.126H296.087L274.387 342.891L282.676 368.4L260.977 352.635L247.979 362.079C246.678 372.537 246 383.189 246 394H502C502 252.616 502 235.948 502 138C451.428 138 404.285 152.67 364.584 177.978V177.978ZM374.502 368.4L352.803 352.635L331.104 368.4L339.393 342.891L317.693 327.126H344.515L352.803 301.617L361.091 327.126H387.913L366.213 342.891L374.502 368.4ZM366.213 268.317L374.502 293.826L352.803 278.061L331.104 293.826L339.393 268.317L317.693 252.552H344.515L352.803 227.043L361.091 252.552H387.913L366.213 268.317ZM466.328 368.4L444.629 352.635L422.93 368.4L431.219 342.891L409.519 327.126H436.341L444.629 301.617L452.917 327.126H479.739L458.039 342.891L466.328 368.4ZM458.039 268.317L466.328 293.826L444.629 278.061L422.93 293.826L431.219 268.317L409.519 252.552H436.341L444.629 227.043L452.917 252.552H479.739L458.039 268.317ZM458.039 193.743L466.328 219.252L444.629 203.487L422.93 219.252L431.219 193.743L409.519 177.978H436.341L444.629 152.469L452.917 177.978H479.739L458.039 193.743Z" fill="#0052B4"/>
</g>
<defs>
<clipPath id="clip0_67_73">
<rect width="390" height="390" fill="white" transform="translate(112 4)"/>
</clipPath>
<clipPath id="clip1_67_73">
<rect width="512" height="512" fill="white" transform="translate(246 138)"/>
</clipPath>
</defs>
</svg>
